<?xml version="1.0" encoding="UTF-8"?>
<svg height="16px" viewBox="0 0 16 16" width="16px" xmlns="http://www.w3.org/2000/svg">
    <path d="M 10,4 C 9.449219,4 9,4.449219 9,5 9,5.550781 9.449219,6 10,6 10.550781,6 11,5.550781 11,5 11,4.449219 10.550781,4 10,4 Z m 0,0 m -2,6.149728 c 1.429688,0 2.75,-0.7617187 3.464844,-1.9999997 0.136718,-0.238281 0.05469,-0.546875 -0.183594,-0.683594 -0.238281,-0.136718 -0.546875,-0.054687 -0.683594,0.183594 -0.535156,0.929688 -1.523437,1.5 -2.597656,1.5 -1.074219,0 -2.0625,-0.570312 -2.597656,-1.5 C 5.265625,7.4114473 4.957031,7.3294163 4.71875,7.4661343 4.480469,7.6028533 4.398438,7.9114473 4.535156,8.1497283 5.25,9.3880093 6.570312,10.149728 8,10.149728 Z m 0,0 M 6,4 C 5.449219,4 5,4.449219 5,5 5,5.550781 5.449219,6 6,6 6.550781,6 7,5.550781 7,5 7,4.449219 6.550781,4 6,4 Z m 0,0 m 2,10 c -5,0 -5,1 -5,1 0,1 1,1 1,1 h 8 c 1,0 1,-1 1,-1 0,0 0,-1 -5,-1 z m 0,0 M 12,1 c 1.664062,0 3,1.339844 3,3 v 6 c 0,1.660156 -1.335938,3 -3,3 H 4 C 2.339844,13 1,11.660156 1,10 V 4 C 1,2.339844 2.339844,1 4,1 Z m 0,2 H 4 C 3.445312,3 3,3.445312 3,4 v 6 c 0,0.554688 0.445312,1 1,1 h 8 c 0.554688,0 1,-0.445312 1,-1 V 4 C 13,3.445312 12.554688,3 12,3 Z m 0,0" fill="#2e3436"/>
</svg>
